<mxfile host="app.diagrams.net" modified="2022-09-13T04:14:32.506Z" agent="5.0 (Macintosh; Intel Mac OS X 10_15_7) AppleWebKit/537.36 (KHTML, like Gecko) Chrome/104.0.0.0 Safari/537.36" etag="1_4VwfrZ4DIYJiNOCTP7" version="20.3.0" type="github">
  <diagram id="bdtvLT6A1bANu2LxBfW4" name="第 1 页">
    <mxGraphModel dx="1426" dy="768" grid="1" gridSize="10" guides="1" tooltips="1" connect="1" arrows="1" fold="1" page="1" pageScale="1" pageWidth="827" pageHeight="1169" math="0" shadow="0">
      <root>
        <mxCell id="0" />
        <mxCell id="1" parent="0" />
        <mxCell id="RnafZ8-wlns_XkJDIBnj-5" value="输入Query" style="edgeStyle=orthogonalEdgeStyle;rounded=0;orthogonalLoop=1;jettySize=auto;html=1;" edge="1" parent="1" source="RnafZ8-wlns_XkJDIBnj-1" target="RnafZ8-wlns_XkJDIBnj-4">
          <mxGeometry relative="1" as="geometry" />
        </mxCell>
        <mxCell id="RnafZ8-wlns_XkJDIBnj-1" value="用户" style="rounded=0;whiteSpace=wrap;html=1;" vertex="1" parent="1">
          <mxGeometry x="386" y="60" width="56" height="30" as="geometry" />
        </mxCell>
        <mxCell id="RnafZ8-wlns_XkJDIBnj-7" value="" style="edgeStyle=orthogonalEdgeStyle;rounded=0;orthogonalLoop=1;jettySize=auto;html=1;startArrow=block;startFill=1;" edge="1" parent="1" source="RnafZ8-wlns_XkJDIBnj-4" target="RnafZ8-wlns_XkJDIBnj-6">
          <mxGeometry relative="1" as="geometry" />
        </mxCell>
        <mxCell id="RnafZ8-wlns_XkJDIBnj-4" value="CDN DNS" style="rounded=0;whiteSpace=wrap;html=1;" vertex="1" parent="1">
          <mxGeometry x="386" y="120" width="56" height="30" as="geometry" />
        </mxCell>
        <mxCell id="RnafZ8-wlns_XkJDIBnj-9" value="" style="edgeStyle=orthogonalEdgeStyle;rounded=0;orthogonalLoop=1;jettySize=auto;html=1;startArrow=block;startFill=1;" edge="1" parent="1" source="RnafZ8-wlns_XkJDIBnj-6" target="RnafZ8-wlns_XkJDIBnj-8">
          <mxGeometry relative="1" as="geometry" />
        </mxCell>
        <mxCell id="RnafZ8-wlns_XkJDIBnj-6" value="BGW" style="rounded=0;whiteSpace=wrap;html=1;" vertex="1" parent="1">
          <mxGeometry x="386" y="170" width="56" height="30" as="geometry" />
        </mxCell>
        <mxCell id="RnafZ8-wlns_XkJDIBnj-11" value="" style="edgeStyle=orthogonalEdgeStyle;rounded=0;orthogonalLoop=1;jettySize=auto;html=1;startArrow=block;startFill=1;" edge="1" parent="1" source="RnafZ8-wlns_XkJDIBnj-8" target="RnafZ8-wlns_XkJDIBnj-10">
          <mxGeometry relative="1" as="geometry" />
        </mxCell>
        <mxCell id="RnafZ8-wlns_XkJDIBnj-8" value="BFE" style="rounded=0;whiteSpace=wrap;html=1;" vertex="1" parent="1">
          <mxGeometry x="386" y="220" width="56" height="30" as="geometry" />
        </mxCell>
        <mxCell id="RnafZ8-wlns_XkJDIBnj-13" value="" style="edgeStyle=orthogonalEdgeStyle;rounded=0;orthogonalLoop=1;jettySize=auto;html=1;startArrow=block;startFill=1;" edge="1" parent="1" source="RnafZ8-wlns_XkJDIBnj-10" target="RnafZ8-wlns_XkJDIBnj-12">
          <mxGeometry relative="1" as="geometry" />
        </mxCell>
        <mxCell id="RnafZ8-wlns_XkJDIBnj-10" value="Pr-Nginx" style="rounded=0;whiteSpace=wrap;html=1;" vertex="1" parent="1">
          <mxGeometry x="386" y="270" width="56" height="30" as="geometry" />
        </mxCell>
        <mxCell id="RnafZ8-wlns_XkJDIBnj-15" value="" style="edgeStyle=orthogonalEdgeStyle;rounded=0;orthogonalLoop=1;jettySize=auto;html=1;startArrow=block;startFill=1;" edge="1" parent="1" source="RnafZ8-wlns_XkJDIBnj-12" target="RnafZ8-wlns_XkJDIBnj-14">
          <mxGeometry relative="1" as="geometry" />
        </mxCell>
        <mxCell id="RnafZ8-wlns_XkJDIBnj-12" value="Ui-Nginx" style="rounded=0;whiteSpace=wrap;html=1;" vertex="1" parent="1">
          <mxGeometry x="386" y="320" width="56" height="30" as="geometry" />
        </mxCell>
        <mxCell id="RnafZ8-wlns_XkJDIBnj-17" value="" style="edgeStyle=orthogonalEdgeStyle;rounded=0;orthogonalLoop=1;jettySize=auto;html=1;startArrow=block;startFill=1;" edge="1" parent="1" source="RnafZ8-wlns_XkJDIBnj-14" target="RnafZ8-wlns_XkJDIBnj-16">
          <mxGeometry relative="1" as="geometry" />
        </mxCell>
        <mxCell id="RnafZ8-wlns_XkJDIBnj-14" value="VUI" style="rounded=0;whiteSpace=wrap;html=1;" vertex="1" parent="1">
          <mxGeometry x="386" y="370" width="56" height="30" as="geometry" />
        </mxCell>
        <mxCell id="RnafZ8-wlns_XkJDIBnj-25" value="" style="edgeStyle=orthogonalEdgeStyle;rounded=0;orthogonalLoop=1;jettySize=auto;html=1;startArrow=block;startFill=1;" edge="1" parent="1" source="RnafZ8-wlns_XkJDIBnj-16" target="RnafZ8-wlns_XkJDIBnj-24">
          <mxGeometry relative="1" as="geometry" />
        </mxCell>
        <mxCell id="RnafZ8-wlns_XkJDIBnj-27" value="" style="edgeStyle=orthogonalEdgeStyle;rounded=0;orthogonalLoop=1;jettySize=auto;html=1;startArrow=block;startFill=1;" edge="1" parent="1" source="RnafZ8-wlns_XkJDIBnj-16" target="RnafZ8-wlns_XkJDIBnj-26">
          <mxGeometry relative="1" as="geometry" />
        </mxCell>
        <mxCell id="RnafZ8-wlns_XkJDIBnj-16" value="US" style="rounded=0;whiteSpace=wrap;html=1;" vertex="1" parent="1">
          <mxGeometry x="386" y="420" width="56" height="30" as="geometry" />
        </mxCell>
        <mxCell id="RnafZ8-wlns_XkJDIBnj-24" value="DA" style="rounded=0;whiteSpace=wrap;html=1;" vertex="1" parent="1">
          <mxGeometry x="470" y="420" width="56" height="30" as="geometry" />
        </mxCell>
        <mxCell id="RnafZ8-wlns_XkJDIBnj-29" value="" style="edgeStyle=orthogonalEdgeStyle;rounded=0;orthogonalLoop=1;jettySize=auto;html=1;startArrow=block;startFill=1;" edge="1" parent="1" source="RnafZ8-wlns_XkJDIBnj-26" target="RnafZ8-wlns_XkJDIBnj-28">
          <mxGeometry relative="1" as="geometry" />
        </mxCell>
        <mxCell id="RnafZ8-wlns_XkJDIBnj-26" value="AC" style="rounded=0;whiteSpace=wrap;html=1;" vertex="1" parent="1">
          <mxGeometry x="386" y="470" width="56" height="30" as="geometry" />
        </mxCell>
        <mxCell id="RnafZ8-wlns_XkJDIBnj-31" value="" style="edgeStyle=orthogonalEdgeStyle;rounded=0;orthogonalLoop=1;jettySize=auto;html=1;startArrow=block;startFill=1;" edge="1" parent="1" source="RnafZ8-wlns_XkJDIBnj-28" target="RnafZ8-wlns_XkJDIBnj-30">
          <mxGeometry relative="1" as="geometry" />
        </mxCell>
        <mxCell id="RnafZ8-wlns_XkJDIBnj-28" value="BC" style="rounded=0;whiteSpace=wrap;html=1;" vertex="1" parent="1">
          <mxGeometry x="386" y="520" width="56" height="30" as="geometry" />
        </mxCell>
        <mxCell id="RnafZ8-wlns_XkJDIBnj-30" value="BS" style="rounded=0;whiteSpace=wrap;html=1;" vertex="1" parent="1">
          <mxGeometry x="386" y="569.5" width="56" height="30" as="geometry" />
        </mxCell>
      </root>
    </mxGraphModel>
  </diagram>
</mxfile>
